<?xml version="1.0" encoding="UTF-8"?>
<svg id="Layer_1" data-name="Layer 1" xmlns="http://www.w3.org/2000/svg" viewBox="0 0 102.71 34.63">
  <defs>
    <style>
      .cls-1 {
        fill-rule: evenodd;
      }

      .cls-1, .cls-2 {
        fill: #00d8ff;
      }

      .cls-3 {
        fill: none;
        stroke: #00d8ff;
        stroke-miterlimit: 10;
        stroke-width: 1.66px;
      }
    </style>
  </defs>
  <g>
    <circle class="cls-2" cx="19.46" cy="17.28" r="3.48"/>
    <g>
      <path class="cls-3" d="M19.46,10.21c4.67,0,9,.67,12.27,1.79,3.94,1.36,6.36,3.41,6.36,5.27s-2.57,4.12-6.8,5.52c-3.2,1.06-7.4,1.61-11.83,1.61s-8.84-.52-12.08-1.62c-4.09-1.4-6.55-3.61-6.55-5.51s2.31-3.88,6.19-5.24c3.28-1.14,7.72-1.83,12.43-1.83h0Z"/>
      <path class="cls-3" d="M13.31,13.77c2.33-4.04,5.08-7.46,7.68-9.73,3.14-2.73,6.13-3.8,7.74-2.88,1.68.97,2.29,4.28,1.39,8.65-.68,3.3-2.3,7.22-4.52,11.06-2.27,3.93-4.87,7.4-7.44,9.65-3.25,2.85-6.4,3.87-8.05,2.92-1.6-.92-2.21-3.94-1.44-7.98.65-3.41,2.27-7.6,4.63-11.69h0Z"/>
      <path class="cls-3" d="M13.32,20.87c-2.34-4.04-3.93-8.13-4.59-11.52-.8-4.09-.23-7.21,1.38-8.14,1.68-.97,4.85.16,8.18,3.11,2.52,2.24,5.11,5.6,7.32,9.43,2.28,3.93,3.98,7.91,4.64,11.26.84,4.24.16,7.48-1.49,8.43-1.6.92-4.52-.05-7.64-2.74-2.63-2.27-5.45-5.77-7.81-9.85h0Z"/>
    </g>
  </g>
  <path class="cls-1" d="M58.04,26.16l-4.26-6.44c2.15-.19,4.09-1.75,4.09-4.6s-2.06-4.76-4.94-4.76h-6.34v15.78h1.96v-6.27h3.15l4.02,6.27h2.32ZM52.69,18.16h-4.14v-6.03h4.14c1.87,0,3.15,1.23,3.15,3.01s-1.28,3.03-3.15,3.03h0ZM65.35,26.44c1.87,0,3.41-.62,4.54-1.75l-.85-1.16c-.9.92-2.22,1.44-3.53,1.44-2.46,0-3.97-1.8-4.12-3.95h9.25v-.45c0-3.43-2.04-6.13-5.49-6.13-3.26,0-5.63,2.67-5.63,5.99,0,3.57,2.44,6,5.82,6h0ZM68.9,19.72h-7.5c.1-1.75,1.3-3.81,3.74-3.81,2.6,0,3.74,2.11,3.76,3.81ZM82.44,26.16v-7.85c0-2.77-2.01-3.86-4.42-3.86-1.87,0-3.34.61-4.57,1.89l.83,1.23c1.02-1.09,2.13-1.58,3.5-1.58,1.66,0,2.89.88,2.89,2.41v2.06c-.92-1.06-2.22-1.56-3.79-1.56-1.94,0-4,1.21-4,3.76s2.06,3.79,4,3.79c1.54,0,2.84-.54,3.79-1.58v1.3h1.77ZM77.52,25.17c-1.66,0-2.82-1.04-2.82-2.48s1.16-2.51,2.82-2.51c1.25,0,2.46.47,3.15,1.42v2.15c-.69.95-1.89,1.42-3.15,1.42h0ZM91.02,26.44c2.08,0,3.31-.85,4.19-1.99l-1.18-1.09c-.76,1.02-1.73,1.49-2.9,1.49-2.44,0-3.95-1.89-3.95-4.42s1.51-4.4,3.95-4.4c1.18,0,2.15.45,2.9,1.49l1.18-1.09c-.88-1.14-2.11-1.99-4.19-1.99-3.41,0-5.7,2.6-5.7,5.99s2.29,6,5.7,6h0ZM100.58,26.44c1.04,0,1.68-.31,2.13-.73l-.52-1.33c-.24.26-.7.47-1.21.47-.78,0-1.16-.62-1.16-1.47v-7.1h2.32v-1.56h-2.32v-3.12h-1.78v3.12h-1.89v1.56h1.89v7.48c0,1.7.85,2.67,2.53,2.67h0Z"/>
</svg>