<?xml version="1.0" encoding="UTF-8"?>
<svg id="Layer_1" data-name="Layer 1" xmlns="http://www.w3.org/2000/svg" viewBox="0 0 814.74 352.45">
  <defs>
    <style>
      .cls-1 {
        fill: #fff;
      }
    </style>
  </defs>
  <path class="cls-1" d="M384.31,217.53c-106.75,86.94-213.31,12.41-181.03-119.26C219.01,34.13,271.11-6.26,338.62,9.03c80.98,18.35,75.32,147.86-29.83,139.77-7.64-.59-33.42-13.02-34.21-2.35-.49,6.61,11.13,31.45,18.29,36.61,35.91,25.87,93.81-15.28,113.63-46.47,16.2-25.48,3.68-21.15.91-40.82-9.59-68.34,86.99-119.46,139.64-84.44,43.05,28.63,24.1,102.28-18.73,82.98-4.06-1.83-48.46-54.36-47.92-16.43.19,13.25,78.8,48.15,77.71,95.63-1.73,75.31-140.37,117.58-173.82,44.01ZM328.29,76.63l-14.17-4.58c-14.35,1.92-33.04,24.6-30.37,39.92,30.97,12.14,64.47,1.98,44.55-35.33ZM470.04,163.88l-48.96-33.37-4.93,33.48c17.16,5.48,27.21,36.01,43.06,34.04l14.73-7.96c4.74-7.73,1.38-19.68-3.9-26.2Z"/>
  <path class="cls-1" d="M591.82,330.72c-6.93-7.89-3.25-21.57,3.5-28.48,8.32-8.52,28.06-.77,42.27-3.23,30.28-5.24,55.47-37.24,53.72-67.72-40.56,27.52-91.46,4.95-103.17-41.1-9.89-38.89-1.01-181.19,50.93-187.88,85.73-11.05-.54,170.25,45.06,160.05,35.18-7.87,44.03-114.59,59.98-137.16,18.36-25.98,70.86-29.06,70.62,10.78-20.93,74.96-27.17,161.27-49.4,234.93-18.67,61.86-65.8,92.18-129.98,78.19-10.3-2.25-37.18-11.14-43.54-18.37Z"/>
  <path class="cls-1" d="M142.87,87.9c-8.73-7.11-12.2-30.44-33.53-19.44l-4.63,13.72c33.89,26.45,86.91,51.8,76.09,103.53C163.31,269.29,11.47,281.98.35,200.29c-3.7-27.19,22.67-39.4,46.36-32.22,18.94,5.74,32.44,55.54,56.62,15.22-3.06-26.95-32.88-34.07-48.96-50.36C-11.2,66.52,81.9-15.87,160.04,4.36c63.46,16.43,36.23,127.04-17.17,83.54Z"/>
</svg>