<svg xmlns="http://www.w3.org/2000/svg" version="1.1" xmlns:xlink="http://www.w3.org/1999/xlink" width="1000" height="1000"><g clip-path="url(#SvgjsClipPath1013)"><rect width="1000" height="1000" fill="#ffffff"></rect><g transform="matrix(2.754170601196097,0,0,2.754170601196097,228.98961284230407,150)"><svg xmlns="http://www.w3.org/2000/svg" id="Layer_1" data-name="Layer 1" viewBox="0 0 196.8 254.16" width="196.8" height="254.16"><path d="M142.87,86.66c-8.73-7.11-12.2-30.44-33.53-19.44l-4.63,13.72c33.89,26.45,86.91,51.8,76.09,103.53C163.31,268.05,11.47,280.74.35,199.05c-3.7-27.19,22.67-39.4,46.36-32.22,18.94,5.74,32.44,55.54,56.62,15.22-3.06-26.95-32.88-34.07-48.96-50.36C-11.2,65.27,81.9-17.12,160.04,3.12c63.46,16.43,36.23,127.04-17.17,83.54Z"></path></svg></g></g><defs><clipPath id="SvgjsClipPath1013"><rect width="1000" height="1000" x="0" y="0" rx="350" ry="350"></rect></clipPath></defs></svg>